<svg width="170" height="174" viewBox="0 0 170 174" fill="none" xmlns="http://www.w3.org/2000/svg">
<g filter="url(#filter0_d)">
<path d="M93.7874 157.593C86.6208 161.067 78.1934 160.762 71.2822 156.8C20.647 127.776 6.19796 99.5125 10.8084 42.7318C11.565 33.4131 17.5939 25.3241 26.286 21.9852C68.8456 5.63685 97.2866 6.30852 138.77 22.1967C147.247 25.4436 153.239 33.1764 154.297 42.2293C161.518 104.022 146.595 131.999 93.7874 157.593Z" fill="#FAF5F0"/>
</g>
<path d="M100.5 102.417H65.5C63.8958 102.417 62.5833 101.104 62.5833 99.5V64.5C62.5833 62.8958 63.8958 61.5833 65.5 61.5833H80.0833C81.6875 61.5833 83 60.2708 83 58.6667C83 57.0625 81.6875 55.75 80.0833 55.75H62.5833C59.3458 55.75 56.75 58.375 56.75 61.5833V102.417C56.75 105.625 59.375 108.25 62.5833 108.25H103.417C106.625 108.25 109.25 105.625 109.25 102.417V84.9167C109.25 83.3125 107.938 82 106.333 82C104.729 82 103.417 83.3125 103.417 84.9167V99.5C103.417 101.104 102.104 102.417 100.5 102.417ZM88.8333 58.6667C88.8333 60.2708 90.1458 61.5833 91.75 61.5833H99.3042L72.675 88.2125C71.5375 89.35 71.5375 91.1875 72.675 92.325C73.8125 93.4625 75.65 93.4625 76.7875 92.325L103.417 65.6958V73.25C103.417 74.8542 104.729 76.1667 106.333 76.1667C107.938 76.1667 109.25 74.8542 109.25 73.25V58.6667C109.25 57.0625 107.938 55.75 106.333 55.75H91.75C90.1458 55.75 88.8333 57.0625 88.8333 58.6667Z" fill="#B57E40"/>
<defs>
<filter id="filter0_d" x="0" y="0" width="170" height="174" filterUnits="userSpaceOnUse" color-interpolation-filters="sRGB">
<feFlood flood-opacity="0" result="BackgroundImageFix"/>
<feColorMatrix in="SourceAlpha" type="matrix" values="0 0 0 0 0 0 0 0 0 0 0 0 0 0 0 0 0 0 127 0"/>
<feOffset dx="2" dy="2"/>
<feGaussianBlur stdDeviation="6"/>
<feColorMatrix type="matrix" values="0 0 0 0 0.137255 0 0 0 0 0.121569 0 0 0 0 0.101961 0 0 0 0.08 0"/>
<feBlend mode="normal" in2="BackgroundImageFix" result="effect1_dropShadow"/>
<feBlend mode="normal" in="SourceGraphic" in2="effect1_dropShadow" result="shape"/>
</filter>
</defs>
</svg>
